<?xml version="1.0" encoding="utf-8"?>
<!-- Generator: Adobe Illustrator 21.1.0, SVG Export Plug-In . SVG Version: 6.00 Build 0)  -->
<svg version="1.1" id="Layer_1" xmlns="http://www.w3.org/2000/svg" xmlns:xlink="http://www.w3.org/1999/xlink" x="0px" y="0px"
	 viewBox="0 0 1024 768" style="enable-background:new 0 0 1024 768;" xml:space="preserve">
<style type="text/css">
	.st0{fill:#A5A5A5;}
	.st1{fill:#D6D6D6;}
	.st2{fill:#A9FF71;}
	.st3{fill:#53586C;}
	.st4{fill:#507AFF;}
	.st5{fill:#FF7373;}
	.st6{fill:#FF99A3;}
	.st7{fill:#F0FFB3;}
	.st8{fill:#9694EA;}
	.st9{fill:#A4A4FF;}
	.st10{fill:#839BFF;}
	.st11{fill:#6666FF;}
	.st12{fill:none;}
</style>
<g>
	<g>
		<g>
			<polyline class="st0" points="130.8,329.9 156.4,310.8 316.3,310.8 316.3,393.9 290.8,413.1 			"/>
		</g>
	</g>
	<g>
		<rect x="130.8" y="329.9" class="st1" width="159.9" height="83.2"/>
	</g>
	<polygon class="st2" points="226.8,409.9 226.8,329.9 252.4,310.8 220.4,310.8 194.8,329.9 194.8,409.9 	"/>
	<g>
		<g>
			<g>
				<path class="st3" d="M290.8,416.3H130.8c-1.8,0-3.2-1.4-3.2-3.2v-83.2c0-1.8,1.4-3.2,3.2-3.2h159.9c1.8,0,3.2,1.4,3.2,3.2v83.2
					C294,414.9,292.5,416.3,290.8,416.3z M134,409.9h153.5v-76.8H134V409.9z"/>
			</g>
		</g>
		<g>
			<g>
				<g>
					<path class="st3" d="M290.8,416.3c-1,0-1.9-0.4-2.6-1.3c-1.1-1.4-0.8-3.4,0.6-4.5l24.3-18.2V314H157.5l-24.7,18.5
						c-1.4,1.1-3.4,0.8-4.5-0.6c-1.1-1.4-0.8-3.4,0.6-4.5l25.6-19.2c0.6-0.4,1.2-0.6,1.9-0.6h159.9c1.8,0,3.2,1.4,3.2,3.2v83.2
						c0,1-0.5,2-1.3,2.6l-25.6,19.2C292.1,416.1,291.4,416.3,290.8,416.3z"/>
				</g>
			</g>
		</g>
		<g>
			<path class="st3" d="M290.8,333.1c-1,0-2-0.5-2.7-1.4c-1-1.5-0.6-3.5,0.9-4.4l24-16c1.5-1,3.5-0.6,4.4,0.9c1,1.5,0.6,3.5-0.9,4.4
				l-24,16C292,333,291.4,333.1,290.8,333.1z"/>
		</g>
		<g>
			<path class="st3" d="M194.8,413.1c-1.8,0-3.2-1.4-3.2-3.2v-80c0-1,0.5-2,1.3-2.6l25.6-19.2c1.4-1.1,3.4-0.8,4.5,0.6
				c1.1,1.4,0.8,3.4-0.6,4.5L198,331.5v78.4C198,411.7,196.6,413.1,194.8,413.1z"/>
		</g>
		<g>
			<path class="st3" d="M226.8,413.1c-1.8,0-3.2-1.4-3.2-3.2v-80c0-1,0.5-2,1.3-2.6l25.6-19.2c1.4-1.1,3.4-0.8,4.5,0.6
				s0.8,3.4-0.6,4.5L230,331.5v78.4C230,411.7,228.6,413.1,226.8,413.1z"/>
		</g>
		<g>
			<path class="st3" d="M182,397.1h-32c-1.8,0-3.2-1.4-3.2-3.2c0-1.8-1.4-3.2-3.2-3.2c-1.8,0-3.2-1.4-3.2-3.2v-38.4
				c0-1.8,1.4-3.2,3.2-3.2c1.8,0,3.2-1.4,3.2-3.2c0-1.8,1.4-3.2,3.2-3.2h32c1.8,0,3.2,1.4,3.2,3.2s-1.4,3.2-3.2,3.2h-29.3
				c-1,2.7-3.1,4.9-5.8,5.8v33.1c2.7,1,4.9,3.1,5.8,5.8H182c1.8,0,3.2,1.4,3.2,3.2C185.2,395.7,183.8,397.1,182,397.1z"/>
		</g>
		<g>
			<path class="st3" d="M271.6,397.1h-32c-1.8,0-3.2-1.4-3.2-3.2s1.4-3.2,3.2-3.2h29.3c1-2.7,3.1-4.9,5.8-5.8v-33.1
				c-2.7-1-4.9-3.1-5.8-5.8h-29.3c-1.8,0-3.2-1.4-3.2-3.2c0-1.8,1.4-3.2,3.2-3.2h32c1.8,0,3.2,1.4,3.2,3.2c0,1.8,1.4,3.2,3.2,3.2
				c1.8,0,3.2,1.4,3.2,3.2v38.4c0,1.8-1.4,3.2-3.2,3.2c-1.8,0-3.2,1.4-3.2,3.2C274.8,395.7,273.3,397.1,271.6,397.1z"/>
		</g>
	</g>
</g>
<path class="st4" d="M443.1,422.7c9.3,0,23.7,0,23.7,0s13.1-45.9,14.8-65.1c-5.9-5.6-38.5-5.9-38.5-5.9S443.1,395.5,443.1,422.7z"/>
<path class="st5" d="M493.4,369.6c7.8-20.4,41.4-59.3,41.4-59.3h29.6c0,0,44.6,53.9,44.6,74.4c0,3.9-0.4,7.7-1.2,11.4L554.2,414
	L493.4,369.6z"/>
<path class="st6" d="M534.8,310.3c0,0-41.4-31.3-32.5-41.4c5.5-6.3,29.6,11.8,29.6,11.8s12.5-17.8,17.8-17.8
	c5.3,0,17.8,17.8,17.8,17.8s24.1-18.1,29.6-11.8c8.9,10.1-32.5,41.4-32.5,41.4H534.8z"/>
<g>
	<path class="st7" d="M510.2,397.5l32.4,6.5c3.2,0.7,6.6,0.6,9.8-0.2l10-2.5v-1.2c0-10.3-5-15-14.9-17.5l-67.1-14.9l-11.2,44.8
		l56,18.7c14.8,5.6,17.4,5.3,48.5-7.5l41-18.7l0,0c-4.4-8.7-14.2-13.2-23.6-10.9l-28.6,7.1"/>
</g>
<g>
	<g>
		<g>
			<g>
				<path class="st3" d="M466.7,425.7h-23.7c-1.6,0-3-1.3-3-3v-71c0-0.8,0.3-1.5,0.9-2.1c0.6-0.5,1.3-0.9,2.1-0.9c0,0,0,0,0,0
					c0.3,0,8.4,0.1,17.2,0.9c16.8,1.5,21.3,4.1,23.2,5.9c0.7,0.6,1,1.5,0.9,2.4c-1.7,19.3-14.4,63.8-14.9,65.6
					C469.2,424.8,468.1,425.7,466.7,425.7z M446,419.8h18.5c2.5-9,12-43.6,13.9-60.7c-1.9-1-6.8-2.5-18.6-3.6
					c-5.5-0.5-10.7-0.7-13.8-0.8V419.8z"/>
			</g>
			<g>
				<path class="st3" d="M539.3,437.6c-4.8,0-9-1.3-15.1-3.7l-55.9-18.6c-1.5-0.5-2.4-2.2-1.9-3.7c0.5-1.5,2.2-2.4,3.7-1.9l56,18.7
					c0,0,0.1,0,0.1,0c13.6,5.2,15.4,5.2,46.3-7.4l38-17.3c-4.2-5.8-11.5-8.5-18.7-6.7l-28.6,7.1c-1.6,0.4-3.2-0.6-3.6-2.2
					c-0.4-1.6,0.6-3.2,2.2-3.6l28.6-7.1c10.9-2.7,22,2.4,27,12.4c0.4,0.7,0.4,1.6,0.1,2.3c-0.3,0.8-0.8,1.4-1.6,1.7l-41,18.7
					c0,0-0.1,0-0.1,0C555.5,434.3,546.8,437.6,539.3,437.6z"/>
			</g>
			<g>
				<path class="st3" d="M547,407.4c-1.7,0-3.3-0.2-5-0.5l-32.4-6.5c-1.6-0.3-2.6-1.9-2.3-3.5c0.3-1.6,1.9-2.6,3.5-2.3l32.4,6.5
					c2.8,0.6,5.8,0.5,8.5-0.2l7.8-1.9c-0.3-7.6-3.8-11.3-12.6-13.5l-67.1-14.9c-1.6-0.4-2.6-1.9-2.2-3.5c0.4-1.6,1.9-2.6,3.5-2.2
					l67.2,14.9c0,0,0.1,0,0.1,0c11.9,3,17.2,9.2,17.2,20.3v1.2c0,1.4-0.9,2.5-2.2,2.9l-10,2.5C551.1,407.2,549.1,407.4,547,407.4z"
					/>
			</g>
		</g>
		<g>
			<path class="st3" d="M607.8,399.1c-0.2,0-0.4,0-0.6-0.1c-1.6-0.4-2.6-1.9-2.2-3.5c0.8-3.5,1.2-7.1,1.2-10.8
				c0-15.6-30.3-55.8-43.1-71.4h-26.8c-5.3,6.3-33.2,39.6-40,57.4c-0.6,1.5-2.3,2.3-3.8,1.7c-1.5-0.6-2.3-2.3-1.7-3.8
				c7.9-20.6,40.6-58.6,41.9-60.2c0.6-0.7,1.4-1,2.2-1h29.6c0.9,0,1.7,0.4,2.3,1.1c0.1,0.1,11.4,13.7,22.5,29.7
				c15.2,21.8,22.8,37.4,22.8,46.6c0,4.1-0.4,8.2-1.3,12.1C610.4,398.1,609.1,399.1,607.8,399.1z"/>
		</g>
		<g>
			<path class="st3" d="M579.2,313.3H520c-1.6,0-3-1.3-3-3c0-1.6,1.3-3,3-3h59.2c1.6,0,3,1.3,3,3
				C582.1,311.9,580.8,313.3,579.2,313.3z"/>
		</g>
		<g>
			<path class="st3" d="M564.4,313.3h-29.6c-0.6,0-1.3-0.2-1.8-0.6c-3.4-2.6-33.6-25.7-34.9-39.3c-0.3-2.5,0.4-4.8,1.9-6.5
				c0.9-1.1,2.7-2.3,5.7-2.3c7.6,0,20,8.2,25.4,12c1.3-1.7,3.2-4.2,5.3-6.7c7.5-8.8,10.9-9.9,13.1-9.9c2.2,0,5.6,1.1,13.1,9.9
				c2.1,2.5,4,4.9,5.3,6.7c5.4-3.8,17.9-12,25.4-12c3,0,4.8,1.3,5.7,2.3c1.5,1.7,2.2,4,1.9,6.5c-1.4,13.5-31.5,36.7-34.9,39.3
				C565.7,313.1,565,313.3,564.4,313.3z M535.8,307.4h27.6c12.2-9.4,31-26.5,31.8-34.5c0.1-1.1-0.2-1.6-0.5-2
				c-0.2-0.2-0.6-0.3-1.3-0.3c-5.5,0-17.8,7.7-24.3,12.6c-0.6,0.5-1.4,0.7-2.2,0.6c-0.8-0.1-1.5-0.6-2-1.2
				c-5.9-8.4-13.1-16.1-15.3-16.5c-2.3,0.4-9.4,8-15.3,16.5c-0.5,0.7-1.2,1.1-2,1.2c-0.8,0.1-1.6-0.1-2.2-0.6
				c-6.5-4.9-18.8-12.6-24.3-12.6c-0.6,0-1.1,0.1-1.3,0.3c-0.3,0.3-0.6,0.8-0.5,2C504.8,280.9,523.6,298,535.8,307.4z"/>
		</g>
		<g>
			<path class="st3" d="M558.4,387.2c-0.8,0-1.5-0.3-2.1-0.9c-1.2-1.2-1.1-3,0-4.2c1.4-1.4,2.1-3.1,2.1-4.9c0-3.8-2.7-6.1-8.9-7.5
				c-0.3-0.1-0.5-0.1-0.7-0.1c-0.1,0-0.3-0.1-0.5-0.1c-9-2-13.6-6.4-13.6-13.3c0-7.4,6.6-13.5,14.8-13.5c7.8,0,14.3,5.5,14.8,12.6
				c0.1,1.6-1.1,3-2.7,3.2c-1.6,0.1-3-1.1-3.2-2.7c-0.3-4-4.2-7.1-8.9-7.1c-4.9,0-8.9,3.4-8.9,7.5c0,3.8,2.8,6.1,8.9,7.5
				c0.3,0.1,0.5,0.1,0.6,0.1c0.1,0,0.3,0.1,0.5,0.1c9,2,13.6,6.4,13.6,13.2c0,3.4-1.4,6.6-3.9,9.1
				C559.9,387,559.2,387.2,558.4,387.2z"/>
		</g>
		<g>
			<path class="st3" d="M549.6,384.3c-1.6,0-3-1.3-3-3v-41.4c0-1.6,1.3-3,3-3c1.6,0,3,1.3,3,3v41.4
				C552.5,383,551.2,384.3,549.6,384.3z"/>
		</g>
	</g>
</g>
<g>
	<path class="st8" d="M803,335v-7h-3c-3.8,0-7-0.8-7,3l-0.7,9.4c0,3.8,1.7,5.5,5.5,5.5L827,348c3.8,0,0,3.8,0,0l4-10l-25,1
		C802.2,339,803,338.8,803,335z"/>
	<path class="st9" d="M832,328h-29l-3.3,5.9c0,3.8,1.7,5.5,5.5,5.5L831,338l1-5C832,329.2,835.8,328,832,328z"/>
	<path class="st10" d="M857,406l-35-57l-20,2c0,0-13,29-30,54c-8.6,12.6,3.8,16.1,4,17l72.1,1.3C861,423,861,410,857,406z"/>
	<path class="st11" d="M806,372l25-9l-8-13l-21,1l-33.2,61.3c0.2,10.7,9.4,9.7,18.2,9.7l-2.2,6.3c-0.2-0.9,4.2-12.4,4.2-13.3
		L806,372z"/>
	<g>
		<g>
			<path class="st3" d="M833,350c0,0-30,2-41,0c-10-14-5-24-2-26s29-5,49,1C842,331,837,343,833,350z M793,331c0,5,5,14,5,14
				s30,2.3,30,0c0,0,7-12,4-17C832,328,793,326,793,331z"/>
		</g>
		<g>
			<path class="st3" d="M854,428c-21,1-79,0-79,0c-9.2,0-17.6-8.9-11-24c10-23,22-34,33-56c0,0,27.8-3.5,30,0c19,31,19.1,29.4,32,52
				C863,407,865,428,854,428z M803,352c0,0-7,11-27,49c-7,11-11,18,0,21l74,1c5.9,0,15-5,4-23s-31-50-31-50L803,352z"/>
		</g>
	</g>
</g>
<circle class="st12" cx="703.3" cy="551.3" r="15.3"/>
</svg>
