<?xml version="1.0" encoding="utf-8"?>
<!-- Generator: Adobe Illustrator 21.1.0, SVG Export Plug-In . SVG Version: 6.00 Build 0)  -->
<svg version="1.1" xmlns="http://www.w3.org/2000/svg" xmlns:xlink="http://www.w3.org/1999/xlink" x="0px" y="0px"
	 viewBox="0 0 1366 768" style="enable-background:new 0 0 1366 768;" xml:space="preserve">
<style type="text/css">
	.st0{fill:#FFFFFF;}
	.st1{fill:#7FD5FF;stroke:#FFFFFF;stroke-miterlimit:10;}
	.st2{fill:#D4EBFF;stroke:#FFFFFF;stroke-miterlimit:10;}
	.st3{fill:#708BC0;stroke:#FFFFFF;stroke-miterlimit:10;}
	.st4{fill:#9EBBDA;stroke:#FFFFFF;stroke-miterlimit:10;}
</style>
<g id="Layer_1">
	<g>
		<path class="st0" d="M951.4,322.7c19.2-21.3,38.4-42.7,57.8-63.8c4.1-4.4,4.7-8.1,2.9-13.8c-17.7-54.2-35.3-108.4-52.4-162.8
			c-1.9-6-5.2-7.9-10.7-9c-55.2-11.7-110.4-23.4-165.4-35.6c-7.1-1.6-11.1,0.3-15.6,5.4c-33.2,37.1-66.7,73.8-99.9,110.9
			c-4.4,5-8.4,6.3-14.9,4.8c-49.4-10.9-99-21.3-148.4-32.2c-6.1-1.3-10-0.5-14.3,4.3c-37.9,42.3-76,84.4-114.2,126.3
			c-4.3,4.7-5,8.6-3,14.6c15.8,48.1,31.1,96.3,46.9,144.4c2.1,6.3,1.4,10.3-3.2,15.3c-34,37.1-67.6,74.7-101.5,111.9
			c-4,4.4-4.8,8.1-2.9,13.8c17.7,54.2,35.2,108.5,52.5,162.8c1.7,5.3,4.1,7.7,9.7,8.9c55.8,11.7,111.6,23.7,167.2,35.9
			c6.4,1.4,10-0.2,14.1-4.8c37.9-42.2,76-84.4,114.2-126.3c4.1-4.5,4.7-8.2,2.8-13.8c-15.9-48.4-31.3-96.9-47.1-145.3
			c-1.9-5.9-1.3-9.9,3-14.6c29.5-32.2,58.8-64.5,87.8-97.1c4.6-5.2,8.7-6.7,15.7-5.2c48.5,10.8,97.2,20.9,145.7,31.7
			c7.7,1.7,12.7,0.9,18.1-5.5C914.2,363.2,933,343.1,951.4,322.7z"/>
		<path class="st1" d="M951.1,323c-18.4,20.4-37.2,40.5-55.1,61.3c-5.5,6.4-10.5,7.2-18.1,5.5c-48.5-10.8-97.2-20.9-145.7-31.7
			c-7-1.5-11,0-15.7,5.2c-29,32.6-58.3,64.9-87.8,97.1c-4.3,4.7-4.9,8.7-3,14.6c15.9,48.4,31.3,96.9,47.1,145.3
			c1.9,5.7,1.2,9.4-2.8,13.8c-38.2,42-76.3,84.1-114.2,126.3c-4.1,4.6-7.7,6.2-14.1,4.8C486,753,430.2,741,374.4,729.3
			c-5.6-1.2-8-3.6-9.7-8.9c-17.3-54.3-34.8-108.6-52.5-162.8c-1.9-5.7-1.1-9.4,2.9-13.8c33.9-37.2,67.5-74.7,101.5-111.9
			c4.6-5,5.2-9,3.2-15.3c-15.8-48.1-31.1-96.3-46.9-144.4c-2-6-1.3-9.9,3-14.6c38.3-41.9,76.3-84,114.2-126.3
			c4.3-4.8,8.2-5.7,14.3-4.3c49.4,10.9,99,21.3,148.4,32.2c6.5,1.4,10.5,0.1,14.9-4.8c33.1-37.1,66.7-73.8,99.9-110.9
			c4.6-5.1,8.5-6.9,15.6-5.4c55.1,12.2,110.2,23.9,165.4,35.6c5.5,1.2,8.8,3,10.7,9c17.2,54.4,34.7,108.6,52.4,162.8
			c1.9,5.7,1.2,9.4-2.9,13.8C989.5,280.3,970.3,301.7,951.1,323z M455.7,214.5c-15.5,17.2-31.3,34.2-46.5,51.8
			c-2.2,2.5-3.4,7.8-2.5,11c13.6,43.6,27.7,87.1,42,130.5c1.1,3.2,5,7.1,8.3,7.8c45.8,10.2,91.7,19.8,137.6,29.8
			c4.9,1.1,7.7-0.1,11-3.7c30.1-33.6,60.4-67.1,90.8-100.5c3.3-3.7,3.9-6.7,2.4-11.3c-14.5-44.3-28.8-88.7-42.9-133.1
			c-1.6-5-4.1-7.3-9.3-8.4c-44.4-9.3-88.8-18.9-133.2-28.6c-5-1.1-8.3-0.3-11.8,3.7C486.6,180.7,471.1,197.6,455.7,214.5z
			 M929,302.5c15.4-17,30.6-34.1,46.2-50.9c3.9-4.1,4.4-7.6,2.7-12.9c-14.2-43.5-28.3-87-42.1-130.6c-1.6-4.9-3.9-7.3-9.1-8.4
			c-45.1-9.5-90.1-19.1-135.1-29c-5.2-1.1-8.4,0-11.9,3.9c-30.4,33.9-60.9,67.6-91.5,101.2c-3.3,3.6-4,6.7-2.5,11.3
			c14.5,44.4,28.8,88.8,42.9,133.2c1.6,5,4.2,7.3,9.3,8.4c44.5,9.3,88.9,18.9,133.3,28.6c5.1,1.1,8.3,0.1,11.8-3.8
			C898.2,336.4,913.7,319.5,929,302.5z M590.3,677.2c15.3-17,30.6-34,46.1-50.8c3.5-3.8,4.4-7,2.7-12.1
			c-14.2-43.4-28.1-87-42.4-130.4c-1.1-3.2-5.2-6.8-8.5-7.5c-45.5-10.1-91.1-19.7-136.6-29.7c-5.2-1.1-8.3,0.1-11.7,3.9
			c-30.1,33.6-60.4,67.1-90.8,100.4c-3.7,4.1-4.7,7.5-3,12.9c14.3,43.7,28.3,87.6,42.7,131.2c1,3.2,5,6.9,8.2,7.6
			c44.9,10,89.9,19.5,134.9,29.3c5.4,1.2,8.8,0.3,12.6-3.9C559.5,711,575,694.2,590.3,677.2z"/>
		<path class="st2" d="M455.7,214.5c15.4-17,30.8-33.8,45.9-51c3.5-4,6.8-4.8,11.8-3.7c44.4,9.7,88.8,19.2,133.2,28.6
			c5.2,1.1,7.7,3.3,9.3,8.4c14.1,44.4,28.4,88.8,42.9,133.1c1.5,4.6,0.9,7.7-2.4,11.3c-30.4,33.4-60.7,66.9-90.8,100.5
			c-3.2,3.6-6.1,4.8-11,3.7c-45.8-10-91.8-19.6-137.6-29.8c-3.2-0.7-7.2-4.6-8.3-7.8c-14.3-43.4-28.3-86.9-42-130.5
			c-1-3.2,0.2-8.4,2.5-11C424.5,248.8,440.2,231.7,455.7,214.5z"/>
		<path class="st3" d="M929,302.5c-15.3,17-30.8,33.9-46,51c-3.5,3.9-6.7,4.9-11.8,3.8c-44.4-9.7-88.8-19.2-133.3-28.6
			c-5.1-1.1-7.7-3.3-9.3-8.4c-14.1-44.5-28.4-88.9-42.9-133.2c-1.5-4.7-0.8-7.7,2.5-11.3c30.6-33.6,61.1-67.4,91.5-101.2
			c3.5-3.9,6.7-5,11.9-3.9c45,9.9,90,19.5,135.1,29c5.2,1.1,7.5,3.5,9.1,8.4c13.8,43.6,27.9,87.1,42.1,130.6
			c1.7,5.3,1.2,8.8-2.7,12.9C959.6,268.4,944.4,285.5,929,302.5z M789.1,104.5c39.6,9.6,78.2,19.1,117.1,28.6
			c1.3-5.7,2.3-10,3.4-14.7c-39.6-9.7-78.2-19.1-117-28.5C791.3,95.2,790.3,99.3,789.1,104.5z M880.4,334.3
			c26.2-28.9,51.8-57.2,77.4-85.6c-3.7-3.3-6.8-6.1-10.2-9.2c-26,28.7-51.5,57-77.4,85.6C873.8,328.3,876.9,331.1,880.4,334.3z"/>
		<path class="st4" d="M590.3,677.2c-15.3,17-30.8,33.8-45.9,51c-3.7,4.3-7.2,5.1-12.6,3.9c-44.9-9.9-90-19.3-134.9-29.3
			c-3.2-0.7-7.1-4.4-8.2-7.6c-14.5-43.7-28.4-87.5-42.7-131.2c-1.8-5.4-0.8-8.8,3-12.9c30.4-33.3,60.7-66.8,90.8-100.4
			c3.5-3.9,6.6-5.1,11.7-3.9c45.5,10,91.1,19.6,136.6,29.7c3.3,0.7,7.4,4.4,8.5,7.5c14.4,43.4,28.2,86.9,42.4,130.4
			c1.7,5.1,0.7,8.3-2.7,12.1C620.9,643.2,605.6,660.2,590.3,677.2z M369,557.9c12.3,39.3,24.4,78.1,36.7,117.4
			c5.4-1.8,9.6-3.1,14.4-4.7c-12.4-39.6-24.4-78.1-36.7-117.3C378.3,555.1,374,556.4,369,557.9z M565.9,509.2
			c1.3-5.3,2.4-9.8,3.6-14.7c-39.2-10.1-77.4-19.9-115.8-29.8c-1.4,5.7-2.4,10-3.5,14.7C489.2,489.4,527.1,499.2,565.9,509.2z"/>
		<path class="st0" d="M789.1,104.5c1.2-5.2,2.2-9.3,3.5-14.7c38.8,9.4,77.4,18.9,117,28.5c-1.1,4.7-2.1,9-3.4,14.7
			C867.2,123.5,828.6,114.1,789.1,104.5z"/>
		<path class="st0" d="M880.4,334.3c-3.6-3.2-6.7-6-10.2-9.2c25.8-28.6,51.4-56.9,77.4-85.6c3.4,3.1,6.5,5.9,10.2,9.2
			C932.2,277.1,906.6,305.4,880.4,334.3z"/>
		<path class="st0" d="M369,557.9c5-1.5,9.2-2.9,14.4-4.5c12.2,39.1,24.3,77.7,36.7,117.3c-4.7,1.5-8.9,2.9-14.4,4.7
			C393.5,636,381.3,597.3,369,557.9z"/>
		<path class="st0" d="M565.9,509.2c-38.8-10-76.8-19.8-115.8-29.8c1.1-4.7,2.1-9,3.5-14.7c38.4,9.9,76.6,19.7,115.8,29.8
			C568.3,499.3,567.2,503.8,565.9,509.2z"/>
	</g>
	<path class="st0" d="M258.1,493.1c-7.9,8.7,5.7,21,13.6,12.3C279.6,496.7,266,484.4,258.1,493.1z"/>
</g>
<g id="Layer_2">
</g>
</svg>
